<svg id="Layer_1" data-name="Layer 1" xmlns="http://www.w3.org/2000/svg" viewBox="0 0 110.82 66.81"><rect x="24.41" y="33.79" width="24.46" height="6.32" rx="2.45"/><rect x="22.55" y="52.56" width="24.11" height="6.41" rx="2.48" transform="translate(83.73 -6.6) rotate(90)"/><path d="M65.19,61.17A40.8,40.8,0,0,1,63,74.72,31.31,31.31,0,0,1,57,85.29a27.34,27.34,0,0,1-9.29,6.87,28.19,28.19,0,0,1-11.75,2.41,28.18,28.18,0,0,1-11.74-2.41,27.24,27.24,0,0,1-9.29-6.87A31.31,31.31,0,0,1,8.79,74.72,40.54,40.54,0,0,1,6.64,61.17,40.5,40.5,0,0,1,8.79,47.62,31.45,31.45,0,0,1,14.88,37a27.21,27.21,0,0,1,9.29-6.86,28.18,28.18,0,0,1,11.74-2.42,28.2,28.2,0,0,1,11.75,2.42A27.31,27.31,0,0,1,57,37,31.45,31.45,0,0,1,63,47.62,40.76,40.76,0,0,1,65.19,61.17Zm-3.68,0a34.92,34.92,0,0,0-3.29-15.59,25.36,25.36,0,0,0-9-10.39,23.84,23.84,0,0,0-13.28-3.71,23.93,23.93,0,0,0-13.23,3.71,25.24,25.24,0,0,0-9.07,10.39,34.92,34.92,0,0,0-3.29,15.59,35,35,0,0,0,3.29,15.59,25.24,25.24,0,0,0,9.07,10.39,23.93,23.93,0,0,0,13.23,3.71,23.84,23.84,0,0,0,13.28-3.71,25.36,25.36,0,0,0,9-10.39A35,35,0,0,0,61.51,61.17Z" transform="translate(-6.64 -27.76)"/><path d="M99.71,29.07q6.51,0,10.4,3.24a18.14,18.14,0,0,1,5.62,8.82,41.59,41.59,0,0,1,1.73,12.32v36a4,4,0,0,1-.89,2.57,2.6,2.6,0,0,1-2.07,1.11A2.65,2.65,0,0,1,112.28,92a4.11,4.11,0,0,1-.84-2.57V53.82a29.68,29.68,0,0,0-1.28-9A13.45,13.45,0,0,0,106,38.44a11.49,11.49,0,0,0-7.6-2.39,14.86,14.86,0,0,0-8,2.39,18.47,18.47,0,0,0-6.17,6.43,17.39,17.39,0,0,0-2.37,9V89.47A4,4,0,0,1,81,92a2.63,2.63,0,0,1-4.29,0,4.11,4.11,0,0,1-.84-2.57V34.58A3.92,3.92,0,0,1,76.73,32,2.68,2.68,0,0,1,78.9,30.9,2.56,2.56,0,0,1,81,32a4.16,4.16,0,0,1,.83,2.57V44.87l-2.26,4.41a18.55,18.55,0,0,1,2-7.53,25.19,25.19,0,0,1,4.68-6.5,22.46,22.46,0,0,1,6.36-4.53A16.45,16.45,0,0,1,99.71,29.07Z" transform="translate(-6.64 -27.76)"/></svg>