<svg id="Layer_1" data-name="Layer 1" xmlns="http://www.w3.org/2000/svg" viewBox="0 0 320 120"><defs><style>.cls-1{fill:#fff;}</style></defs><path class="cls-1" d="M114.84,46.4c3,0,5.19.63,6.72,1.86a9.48,9.48,0,0,1,3.17,5,25.38,25.38,0,0,1,.86,6.87V75.44a3.56,3.56,0,0,1-1,2.61,3.67,3.67,0,0,1-5.14,0,3.6,3.6,0,0,1-1-2.61V60.08a11.71,11.71,0,0,0-.51-3.57A5.05,5.05,0,0,0,116.1,54a6.38,6.38,0,0,0-3.76-1,8,8,0,0,0-4,1,6.65,6.65,0,0,0-2.5,2.55,7.34,7.34,0,0,0-.87,3.57V75.44a3.57,3.57,0,0,1-1,2.61,3.66,3.66,0,0,1-5.13,0,3.57,3.57,0,0,1-1-2.61V50.67a3.61,3.61,0,0,1,1-2.62,3.66,3.66,0,0,1,5.13,0,3.61,3.61,0,0,1,1,2.62v2.58l-.9-.19a11.5,11.5,0,0,1,1.56-2.18,14.52,14.52,0,0,1,2.39-2.2,12,12,0,0,1,3.1-1.64A10.72,10.72,0,0,1,114.84,46.4Z"/><path class="cls-1" d="M133.12,44a3.7,3.7,0,0,1-2.6-1,3.22,3.22,0,0,1-1-2.52,3.15,3.15,0,0,1,1-2.48,3.77,3.77,0,0,1,2.6-.94h26.52a3.76,3.76,0,0,1,2.6,1,3.29,3.29,0,0,1,1,2.52,3.21,3.21,0,0,1-1,2.5,3.78,3.78,0,0,1-2.6.92Zm13.2,35.1a3.77,3.77,0,0,1-2.75-1,3.49,3.49,0,0,1-1.07-2.61V40.64h7.76v34.8a3.44,3.44,0,0,1-1.1,2.61A4,4,0,0,1,146.32,79.1Z"/><path class="cls-1" d="M169,79.1a3.41,3.41,0,0,1-2.57-1,3.57,3.57,0,0,1-1-2.61V50.67a3.61,3.61,0,0,1,1-2.62,3.66,3.66,0,0,1,5.13,0,3.61,3.61,0,0,1,1,2.62V56.3l-.42-4a9.76,9.76,0,0,1,1.7-2.56,10.54,10.54,0,0,1,2.36-1.85A10.72,10.72,0,0,1,179,46.76a12.67,12.67,0,0,1,3-.36,4.61,4.61,0,0,1,3,1,3.07,3.07,0,0,1,1.23,2.41,3.54,3.54,0,0,1-1,2.84,3.33,3.33,0,0,1-2.21.87,4.78,4.78,0,0,1-2.06-.42,5.24,5.24,0,0,0-2.12-.41,5.31,5.31,0,0,0-2.18.5,6,6,0,0,0-2,1.59,8.28,8.28,0,0,0-1.49,2.67,11.2,11.2,0,0,0-.57,3.75V75.44a3.57,3.57,0,0,1-1,2.61A3.4,3.4,0,0,1,169,79.1Z"/><path class="cls-1" d="M216.44,46.4a3.49,3.49,0,0,1,2.56,1,3.59,3.59,0,0,1,1,2.64V75.44a3.57,3.57,0,0,1-1,2.61,3.66,3.66,0,0,1-5.13,0,3.57,3.57,0,0,1-1-2.61V72.5l1.32.54a3.32,3.32,0,0,1-.84,1.89,11.09,11.09,0,0,1-2.27,2.19A13.85,13.85,0,0,1,207.69,79a11.83,11.83,0,0,1-4.21.74A13.69,13.69,0,0,1,196,77.58a15,15,0,0,1-5.29-5.89,18.46,18.46,0,0,1-1.94-8.61,18.64,18.64,0,0,1,1.94-8.66A15.18,15.18,0,0,1,196,48.54a13.13,13.13,0,0,1,7.29-2.14,14,14,0,0,1,4.72.78,14.51,14.51,0,0,1,3.73,2,11.72,11.72,0,0,1,2.45,2.42,4,4,0,0,1,.86,2.08l-2.15.77V50.06a3.59,3.59,0,0,1,1-2.6A3.38,3.38,0,0,1,216.44,46.4ZM204.37,73.1a8.06,8.06,0,0,0,4.6-1.31,8.86,8.86,0,0,0,3.08-3.61,11.57,11.57,0,0,0,1.1-5.1,11.84,11.84,0,0,0-1.1-5.16A8.93,8.93,0,0,0,209,54.33a8.52,8.52,0,0,0-9.14,0,8.9,8.9,0,0,0-3.07,3.59,11.7,11.7,0,0,0-1.11,5.16,11.44,11.44,0,0,0,1.11,5.1,8.83,8.83,0,0,0,3.07,3.61A8,8,0,0,0,204.37,73.1Z"/><path class="cls-1" d="M241.7,46.4a21.86,21.86,0,0,1,5.94.72,9.72,9.72,0,0,1,3.94,2A4.06,4.06,0,0,1,253,52.22a3.86,3.86,0,0,1-.72,2.25,2.37,2.37,0,0,1-2.09,1.05,4,4,0,0,1-1.58-.27,3.92,3.92,0,0,1-1.11-.69,6.2,6.2,0,0,0-1.13-.77,5.47,5.47,0,0,0-1.82-.58,13.57,13.57,0,0,0-1.82-.21,9.6,9.6,0,0,0-5.17,1.33,8.82,8.82,0,0,0-3.26,3.56,11.46,11.46,0,0,0-1.13,5.19,11.08,11.08,0,0,0,1.16,5.13,9.24,9.24,0,0,0,3.23,3.58,8.6,8.6,0,0,0,4.75,1.31,15.9,15.9,0,0,0,2.57-.18,6.43,6.43,0,0,0,1.79-.54,10.52,10.52,0,0,0,1.49-1,3.07,3.07,0,0,1,2-.53,3,3,0,0,1,2.39,1,3.65,3.65,0,0,1,.84,2.44A3.4,3.4,0,0,1,251.67,77a13.31,13.31,0,0,1-4.38,2,22.57,22.57,0,0,1-5.89.74,15,15,0,0,1-8.18-2.19,14.66,14.66,0,0,1-5.35-6A18.75,18.75,0,0,1,226,63.08a18.17,18.17,0,0,1,2-8.66,14.93,14.93,0,0,1,5.56-5.88A15.54,15.54,0,0,1,241.7,46.4Z"/><path class="cls-1" d="M262.72,79.1a3.4,3.4,0,0,1-2.56-1,3.57,3.57,0,0,1-1-2.61V38.36a3.63,3.63,0,0,1,1-2.61,3.68,3.68,0,0,1,5.13,0,3.63,3.63,0,0,1,1,2.61V75.44a3.57,3.57,0,0,1-1,2.61A3.41,3.41,0,0,1,262.72,79.1Zm19-32.1a3.15,3.15,0,0,1,2.39,1.14,3.45,3.45,0,0,1,1,2.22,3.6,3.6,0,0,1-1.43,2.7l-18,16.62-.3-8.28,13.68-13.26A3.62,3.62,0,0,1,281.72,47Zm.89,32a3.38,3.38,0,0,1-2.62-1.2L268.94,66.08l5.43-5L285.12,72.8a3.84,3.84,0,0,1,1.14,2.7A3.13,3.13,0,0,1,285,78.05,3.87,3.87,0,0,1,282.61,79Z"/><rect class="cls-1" x="62" y="58.1" width="20" height="4.9" rx="2.45"/><rect class="cls-1" x="55.56" y="50.99" width="18.7" height="5.24" rx="2.62" transform="translate(118.52 -11.3) rotate(90)"/><path class="cls-1" d="M89.92,57.8a30.2,30.2,0,0,1-1.76,10.52,24.13,24.13,0,0,1-5,8.2,22.23,22.23,0,0,1-7.59,5.33,25.6,25.6,0,0,1-19.21,0,22.17,22.17,0,0,1-7.6-5.33,24.13,24.13,0,0,1-5-8.2A30.2,30.2,0,0,1,42,57.8,30.14,30.14,0,0,1,43.8,47.29a24.17,24.17,0,0,1,5-8.21,22.15,22.15,0,0,1,7.6-5.32,25.48,25.48,0,0,1,19.21,0,22.2,22.2,0,0,1,7.59,5.32,24.17,24.17,0,0,1,5,8.21A30.14,30.14,0,0,1,89.92,57.8Zm-3,0a25.93,25.93,0,0,0-2.69-12.09,20,20,0,0,0-7.38-8.07A20.35,20.35,0,0,0,66,34.76a20.38,20.38,0,0,0-10.82,2.88,20,20,0,0,0-7.42,8.07A25.93,25.93,0,0,0,45.05,57.8a26,26,0,0,0,2.69,12.1A20,20,0,0,0,55.16,78,20.38,20.38,0,0,0,66,80.84,20.35,20.35,0,0,0,76.84,78a20,20,0,0,0,7.38-8.06A26,26,0,0,0,86.91,57.8Z"/></svg>