<svg xmlns="http://www.w3.org/2000/svg" xmlns:xlink="http://www.w3.org/1999/xlink" width="375" height="812" viewBox="0 0 375 812">
  <defs>
    <clipPath id="clip-path">
      <rect id="Rectangle_37" data-name="Rectangle 37" width="120" height="120" transform="translate(54 110)" fill="#fff" stroke="#707070" stroke-width="1"/>
    </clipPath>
    <clipPath id="clip-ReturningUser_Timer_">
      <rect width="375" height="812"/>
    </clipPath>
  </defs>
  <g id="ReturningUser_Timer_" data-name="ReturningUser (Timer)" clip-path="url(#clip-ReturningUser_Timer_)">
    <rect width="375" height="812" fill="#fff"/>
    <ellipse id="Ellipse_1" data-name="Ellipse 1" cx="211" cy="87" rx="211" ry="87" transform="translate(289.481 284.138) rotate(-82)" fill="#9999eb"/>
    <path id="Path_17" data-name="Path 17" d="M171.086,8.484c94.488,4.686,172.652,47.1,174.584,94.74S272.57,185.682,178.082,181,5.43,133.895,3.5,86.256,76.6,3.8,171.086,8.484Z" transform="matrix(-0.208, 0.978, -0.978, -0.208, 112.714, 568.678)" fill="#91e8df"/>
    <path id="Path_16" data-name="Path 16" d="M178.895,22.806c98.8,12.6,185.161,66.383,192.892,120.138s-66.1,87.121-164.9,74.526S21.727,151.087,14,97.332,80.094,10.211,178.895,22.806Z" transform="matrix(0.839, -0.545, 0.545, 0.839, 107.082, 27.586)" fill="#9999eb"/>
    <path id="Path_15" data-name="Path 15" d="M147.365,1.556c87.595,10.289,163.716,57.712,170.022,105.922S257.8,186.43,170.2,176.141,6.484,118.43.178,70.219,59.77-8.733,147.365,1.556Z" transform="matrix(-0.875, 0.485, -0.485, -0.875, 208.793, 811.435)" fill="#91e8df"/>
    <text id="Login" transform="translate(136 274)" font-size="40" font-family="Quicksand-SemiBold, Quicksand" font-weight="600"><tspan x="0" y="0">Login</tspan></text>
    <g id="Mask_Group_1" data-name="Mask Group 1" transform="translate(175 582)" clip-path="url(#clip-path)">
      <g id="onTrack_Simple_Logo-black" data-name="onTrack Simple Logo-black" transform="translate(54.004 133.851)">
        <rect id="Rectangle_38" data-name="Rectangle 38" width="26.485" height="6.843" rx="2.653" transform="translate(26.431 36.587)"/>
        <rect id="Rectangle_39" data-name="Rectangle 39" width="26.106" height="6.941" rx="2.685" transform="translate(33.75 17.27) rotate(90)"/>
        <path id="Path_18" data-name="Path 18" d="M70.587,66.234a44.178,44.178,0,0,1-2.371,14.672,33.9,33.9,0,0,1-6.5,11.445A29.6,29.6,0,0,1,51.66,99.789a30.524,30.524,0,0,1-12.723,2.61,30.513,30.513,0,0,1-12.712-2.61A29.5,29.5,0,0,1,16.166,92.35,33.9,33.9,0,0,1,9.518,80.905,43.9,43.9,0,0,1,7.19,66.234,43.853,43.853,0,0,1,9.518,51.562a34.053,34.053,0,0,1,6.594-11.5,29.462,29.462,0,0,1,10.059-7.428,30.513,30.513,0,0,1,12.712-2.62,30.535,30.535,0,0,1,12.723,2.62,29.571,29.571,0,0,1,10.113,7.428,34.054,34.054,0,0,1,6.5,11.5A44.135,44.135,0,0,1,70.587,66.234Zm-3.985,0A37.811,37.811,0,0,0,63.04,49.353,27.459,27.459,0,0,0,53.295,38.1a25.814,25.814,0,0,0-14.379-4.017A25.911,25.911,0,0,0,24.59,38.1a27.329,27.329,0,0,0-9.821,11.25,37.811,37.811,0,0,0-3.562,16.881,37.9,37.9,0,0,0,3.562,16.881,27.329,27.329,0,0,0,9.821,11.25,25.911,25.911,0,0,0,14.325,4.017,25.814,25.814,0,0,0,14.379-4.017,27.459,27.459,0,0,0,9.745-11.25A37.9,37.9,0,0,0,66.6,66.234Z" transform="translate(-7.19 -30.058)"/>
        <path id="Path_19" data-name="Path 19" d="M107.964,31.476q7.049,0,11.261,3.508a19.642,19.642,0,0,1,6.085,9.55,45.033,45.033,0,0,1,1.873,13.34v38.98a4.331,4.331,0,0,1-.964,2.783,2.815,2.815,0,0,1-2.241,1.2,2.869,2.869,0,0,1-2.4-1.224,4.45,4.45,0,0,1-.91-2.783V58.275a32.137,32.137,0,0,0-1.386-9.745,14.564,14.564,0,0,0-4.5-6.908,12.441,12.441,0,0,0-8.229-2.588,16.09,16.09,0,0,0-8.662,2.588A20,20,0,0,0,91.2,48.584a18.83,18.83,0,0,0-2.566,9.745V96.876a4.331,4.331,0,0,1-.931,2.739,2.848,2.848,0,0,1-4.645,0,4.45,4.45,0,0,1-.91-2.783V37.443a4.245,4.245,0,0,1,.931-2.794,2.9,2.9,0,0,1,2.35-1.191,2.772,2.772,0,0,1,2.274,1.191,4.5,4.5,0,0,1,.9,2.783V48.584l-2.447,4.775a20.086,20.086,0,0,1,2.166-8.153,27.275,27.275,0,0,1,5.067-7.038,24.319,24.319,0,0,1,6.886-4.905,17.812,17.812,0,0,1,7.688-1.787Z" transform="translate(-7.19 -30.058)"/>
      </g>
    </g>
    <text id="_" data-name="􀍖" transform="translate(163 351)" font-size="40" font-family="Quicksand-SemiBold, SF Compact" font-weight="600"><tspan x="0" y="0">􀍖</tspan></text>
    <text id="_2" data-name="􀎡" transform="translate(168 471)" font-size="40" font-family="Quicksand-SemiBold, SF Compact" font-weight="600"><tspan x="0" y="0">􀎡</tspan></text>
  </g>
</svg>
